/* XPM */
static char *xpm_[] = {
/* columns rows colors chars-per-pixel */
"64 64 19 1 ",
"  c #181717",
". c #2F2F2F",
"X c #353535",
"o c gray27",
"O c #4F4D4D",
"+ c gray33",
"@ c gray37",
"# c #646464",
"$ c #6D6D6D",
"% c gray47",
"& c #CB1A1A",
"* c #FF1414",
"= c gray51",
"- c gray55",
"; c gray59",
": c gray66",
"> c #D8D8D8",
", c white",
"< c None",
/* pixels */
"<<<<<<<<<<<<<<<<<<<<<<<<<<<<<<<<<<<<<<<<<<<<<<<<<<<<<<<<<<<<<<<<",
"<<<<<<<<<<<<<<<<<<<<<<<<<<<<<<<<<<<<<<<<<<<<<<<<<<<<<<<<<<<<<<<<",
"<<<<<<<<<<<<<<<<<<<<<<<<<<<<<<<<<<<<<<<<<<<<<<<<<<<<<<<<<<<<<<<<",
"<<<<<<<<<<<<<<<<<<<<<<<<<<<<<<<<<<<<<<<<<<<<<<<<<<<<<<<<<<<<<<<<",
"<<<<<<<<<<<<<<<<<<<<<<<<<<<<<<<<<<<<<<<<<<<<<<<<<<<<<<<<<<<<<<<<",
"<<<<<<<<<<<<<<<<<<<<<<<<<<<<<<<<<<<<<<<<<<<<<<<<<<<<<<<<<<<<<<<<",
"<<<<<<<<<<<<<<<<<<<<<<<<<<<<<<<<<<<<<<<<<<<<<<<<<<<<<<<<<<<<<<<<",
"<<<<<<<<<<<<<<<<<<<<<<<<<<<<<<<<<<<<<<<<<<<<<<<<<<<<<<<<<<<<<<<<",
"<<<<<<<<<<<<<<<<<<<<<<<<XXXXXXXXXXXXXXXX<<<<<<<<<<<<<<<<<<<<<<<<",
"<<<<<<<<<<<<<<<<<<<<XXXX;::::===@@@===@@XXXX<<<<<<<<<<<<<<<<<<<<",
"<<<<<<<<<<<<<<<<<XXX:::;:;;;;$$$ooo$$$oo@@@@XXX<<<<<<<<<<<<<<<<<",
"<<<<<<<<<<<<<<<XX===%%%%@@@@@@@@@@@@@@@@++++@@@XX<<<<<<<<<<<<<<<",
"<<<<<<<<<<<<<XX==%%%@@@@XXXXX......XXXXXOOOO+++@@XX<<<<<<<<<<<<<",
"<<<<<<<<<<<< ==%%@@@XXX..................XXXOOO++@@ <<<<<<<<<<<<",
"<<<<<<<<<<< =%%@@XX.........................XXXOO++@ <<<<<<<<<<<",
"<<<<<<<<<< =%@@X.............................XXXXOO+@ <<<<<<<<<<",
"<<<<<<<<< =%@X................................XXXXXO+@ <<<<<<<<<",
"<<<<<<<< =%@X..................................XXXXXO+@ <<<<<<<<",
"<<<<<<< =%@X....................................XXXXXO+@ <<<<<<<",
"<<<<<< =%@X.....................................XXXXXXO+@ <<<<<<",
"<<<<<< =@X.......................................XXXXXXO@ <<<<<<",
"<<<<< =@X........................................XXXXXXXO@ <<<<<",
"<<<<< =@X.............*&&.........................XXXXXXO@ <<<<<",
"<<<<< =@X..............*&&&&......................XXXXXXO@ <<<<<",
"<<<< =@X................*&&&&&.....................XXXXXXO@ <<<<",
"<<<< =@X.................*&&&&&&...................XXXXXXO@ <<<<",
"<<<< =X...................*&&&&&&&..................XXXXXX@ <<<<",
"<<<< =X...................**&&&&&&&&................XXXXXX@ <<<<",
"<<<< =X....................***&&&&OOO...............XXXXXX@ <<<<",
"<<<< =X....................*****OOOOO...............XXXXXX@ <<<<",
"<<<< :X.....................**####OOOO..............XXXXXX= <<<<",
"<<<< :X.......................######OO..............XXXXXX= <<<<",
"<<<< =:X........................#####OO............XXXXXX=O <<<<",
"<<<< =:X..........................####OO...........XXXXXX=O <<<<",
"<<<< ==,X...........................###OO.........XXXXXX=OO <<<<",
"<<<< ==:,X.............................#OO........XXXXX=OOO <<<<",
"<<<< ==::,X......................................XXXXX=OOOO <<<<",
"<<<< ==::>,X.....................................XXXX=OOOOO <<<<",
"<<<< ==::>>,,X..................................XXX==OOOOOO <<<<",
"<<<< ==::>>>>,,X...............................XX==OOOOOOOO <<<<",
"<<<<< =::>>>>>>,,XX..........................XX==OOOOOOOOO <<<<<",
"<<<<< =::>>>>>>>>,,,XXX..................XXX===@@OOOOOOOOO <<<<<",
"<<<<< =::>>>>>>>>>>>,,,,XX............XX====@@@@@OOOOOOOOO <<<<<",
"<<<<<< =:>>>>>>>>>>>>>>>,,,,,,,:>>>>>>==-@@@@@@@@OOOOOOOO <<<<<<",
"<<<<<< =:>>>>>>>>>>>>>>>>>>>:::=::::::--@@@@@@@@@OOOOOOOO <<<<<<",
"<<<<<<< =>>>>>>>>>>>>>>>>>>>:::=:::::---@@@@@@@@@OOOOOOO <<<<<<<",
"<<<<<<<< :>>>>>>>>>>>>>>>>>>:::=:::::---@@@@@@@@@OOOOOO <<<<<<<<",
"<<<<<<<<< :>>>>>>>>>>>>>>>>>:::=:::::---@@@@@@@@@OOOOO <<<<<<<<<",
"<<<<<<<<<< :>>>>>>>>>>>>>>>>:::=:::::---@@@@@@@@@OOOO <<<<<<<<<<",
"<<<<<<<<<<< :>>>>>>>>>>>>>>>:::=:::::---@@@@@@@@@OOO <<<<<<<<<<<",
"<<<<<<<<<<<< :>>>>>>>>>>>>>>:::=:::::---@@@@@@@@@OO <<<<<<<<<<<<",
"<<<<<<<<<<<<<  >>>>>>>>>>>>>:::=:::::---@@@@@@@@O  <<<<<<<<<<<<<",
"<<<<<<<<<<<<<<<  :>>>>>>>>>>:::=:::::---@@@@@@@  <<<<<<<<<<<<<<<",
"<<<<<<<<<<<<<<<<<   :>>>>>>>:::=:::::---@@@@   <<<<<<<<<<<<<<<<<",
"<<<<<<<<<<<<<<<<<<<<    :>>>:::=::::---@    <<<<<<<<<<<<<<<<<<<<",
"<<<<<<<<<<<<<<<<<<<<<<<<                <<<<<<<<<<<<<<<<<<<<<<<<",
"<<<<<<<<<<<<<<<<<<<<<<<<<<<<<<<<<<<<<<<<<<<<<<<<<<<<<<<<<<<<<<<<",
"<<<<<<<<<<<<<<<<<<<<<<<<<<<<<<<<<<<<<<<<<<<<<<<<<<<<<<<<<<<<<<<<",
"<<<<<<<<<<<<<<<<<<<<<<<<<<<<<<<<<<<<<<<<<<<<<<<<<<<<<<<<<<<<<<<<",
"<<<<<<<<<<<<<<<<<<<<<<<<<<<<<<<<<<<<<<<<<<<<<<<<<<<<<<<<<<<<<<<<",
"<<<<<<<<<<<<<<<<<<<<<<<<<<<<<<<<<<<<<<<<<<<<<<<<<<<<<<<<<<<<<<<<",
"<<<<<<<<<<<<<<<<<<<<<<<<<<<<<<<<<<<<<<<<<<<<<<<<<<<<<<<<<<<<<<<<",
"<<<<<<<<<<<<<<<<<<<<<<<<<<<<<<<<<<<<<<<<<<<<<<<<<<<<<<<<<<<<<<<<",
"<<<<<<<<<<<<<<<<<<<<<<<<<<<<<<<<<<<<<<<<<<<<<<<<<<<<<<<<<<<<<<<<"
};
