/* XPM */
static char *d8c9b8f4cfc943a6e5acbb129cb2dbcai4MyoafvbfAloT2d[] = {
/* columns rows colors chars-per-pixel */
"128 128 3 1 ",
"  c black",
". c #322E2E",
"X c white",
/* pixels */
"................................................................................................................................",
"................................................................................................................................",
"................................................................................................................................",
"................................................................................................................................",
"................................................................................................................................",
"................................................................................................................................",
"................................................................................................................................",
"................................................................................................................................",
"........                                                                                                                ........",
"........                                                                                                                ........",
"........                                                                                                                ........",
"........                                                                                                                ........",
"........                                                                                                                ........",
"........                                                                                                                ........",
"........                                                                                                                ........",
"........                                                                                                                ........",
"........                                                                                                                ........",
"........                                                                                                                ........",
"........                                                                                                                ........",
"........                                                                                                                ........",
"........                                                                                                                ........",
"........                                                                                                                ........",
"........                                                                                                                ........",
"........                                                                                                                ........",
"........                                                                                                                ........",
"........                                                                                                                ........",
"........                                                                                                                ........",
"........                                                                                                                ........",
"........                                                                                                                ........",
"........                                                                                                                ........",
"........                                                                                                                ........",
"........                                                                                                                ........",
"........                                                                                                                ........",
"........                                                                                                                ........",
"........                                                                                                                ........",
"........                                                                                                                ........",
"........                                                                                                                ........",
"........                                                                                                                ........",
"........                                                                                                                ........",
"........                                                                                                                ........",
"........                                                                                                                ........",
"........                                                                                                                ........",
"........                                                        XXXX                                                    ........",
"........                                                     XXXXXXX                                                    ........",
"........                       XXXXXXXXXXXXX               XXXXXXXXX                                                    ........",
"........                   XXXXXXXXXXXXXXXXX             XXXXXXXXXXX                                                    ........",
"........                  XXXXXXXXXXXXXXXXXX           XXXXXXXXXXXXX                                                    ........",
"........                 XXXXXXXXXXXXXXXXXXX          XXXXXXXXXX                                      XXXX              ........",
"........                XXXXXXXXXX                    XXXXXXXX                                        XXXX              ........",
"........               XXXXXXX                        XXXXXXX                                         XXXX              ........",
"........               XXXXXX                         XXXXXXX                                         XXXX              ........",
"........              XXXXXXX                            XXXX                                        XXXXX              ........",
"........              XXXXX                              XXXX                                       XXXXXX              ........",
"........             XXXXXX                              XXXX                                       XXXXXX              ........",
"........             XXXXX                              XXXXX                                      XXXXXXX              ........",
"........             XXXXX                              XXXXX                                      XXXXXX               ........",
"........            XXXXX                               XXXXX                                     XXXXXXX               ........",
"........            XXXXX                               XXXX                                     XXXXXXXX               ........",
"........            XXXXX                               XXXX                                   XXXXXXXXXX               ........",
"........            XXXX                                XXXX                                 XXXXXXXXXXX                ........",
"........            XXXX                                XXXX     XXXX                        XXXXXXXXXXX                ........",
"........           XXXXX                                XXXX XXXXXXXX                        XXXXXXXXXXX                ........",
"........           XXXXX                                XXXXXXXXXXXXX                        XXXXX XXXXX                ........",
"........           XXXXX                                XXXXXXXXXXXXX                              XXXXX                ........",
"........           XXXX                                 XXXXXXXXXXXX                               XXXX                 ........",
"........           XXXX                                 XXXXXXXX                                   XXXX                 ........",
"........           XXXX                                 XXXX                                       XXXX                 ........",
"........           XXXX                                 XXXX                                      XXXXX                 ........",
"........           XXXX                                 XXXX                                      XXXXX                 ........",
"........           XXXX                                 XXXX                                      XXXXX                 ........",
"........           XXXXXX                               XXXX                                      XXXX                  ........",
"........           XXXXXX                               XXXX                                     XXXXX                  ........",
"........           XXXXXXX                              XXXX                                     XXXXX                  ........",
"........            XXXXXX                              XXXX                                     XXXXX                  ........",
"........             XXXXXXXXX                          XXXX                                     XXXX                   ........",
"........              XXXXXXXXXX                       XXXXX              XXXXXXXXXXX            XXXX                   ........",
"........              XXXXXXXXXXX                      XXXXX    XXXXXXXXXXXXXXXXXXXXX            XXXX                   ........",
"........               XXXXXXXXXXXX                  XXXXXXXXXXXXXXXXXXXXXXXXXXXXXXXX        XXXXXXXXXXXXX              ........",
"........                   XXXXXXXXXXXXXXXXXXXXX     XXXXXXXXXXXXXXXXXXXXXXXXXXXXXXXX    XXXXXXXXXXXXXXXXX              ........",
"........                     XXXXXXXXXXXXXXXXXXXXXXXXXXXXXXXXXXXXXXXXXXXXXXXX            XXXXXXXXXXXXXXXXX              ........",
"........                      XXXXXXXXXXXXXXXXXXXXXXXXXXXXXXXXXXXXX                      XXXXXXXXXXXXXXXXX              ........",
"........                        XXXXXXXXXXXXXXXXXXXXXX                                   XXXXXXXXXXXX                   ........",
"........                                     XXXXXXXXX                                    XXXXXXXXXX                    ........",
"........                                                                                                                ........",
"........                                                                                                                ........",
"........                                                                                                                ........",
"........                                                                                                                ........",
"........                                                                                                                ........",
"........                                                                                                                ........",
"........                                                                                                                ........",
"........                                                                                                                ........",
"........                                                                                                                ........",
"........                                                                                                                ........",
"........                                                                                                                ........",
"........                                                                                                                ........",
"........                                                                                                                ........",
"........                                                                                                                ........",
"........                                                                                                                ........",
"........                                                                                                                ........",
"........                                                                                                                ........",
"........                                                                                                                ........",
"........                                                                                                                ........",
"........                                                                                                                ........",
"........                                                                                                                ........",
"........                                                                                                                ........",
"........                                                                                                                ........",
"........                                                                                                                ........",
"........                                                                                                                ........",
"........                                                                                                                ........",
"........                                                                                                                ........",
"........                                                                                                                ........",
"........                                                                                                                ........",
"........                                                                                                                ........",
"........                                                                                                                ........",
"........                                                                                                                ........",
"........                                                                                                                ........",
"........                                                                                                                ........",
"........                                                                                                                ........",
"........                                                                                                                ........",
"........                                                                                                                ........",
"................................................................................................................................",
"................................................................................................................................",
"................................................................................................................................",
"................................................................................................................................",
"................................................................................................................................",
"................................................................................................................................",
"................................................................................................................................",
"................................................................................................................................"
};
