/* XPM */
static char *_c973c5ecdaa463f9cc53ec1ff53c3c1gRF86kV6avC9SAfQ[] = {
/* columns rows colors chars-per-pixel */
"128 128 3 1 ",
"  c black",
". c #322E2E",
"X c white",
/* pixels */
"................................................................................................................................",
"................................................................................................................................",
"................................................................................................................................",
"................................................................................................................................",
"................................................................................................................................",
"................................................................................................................................",
"................................................................................................................................",
"................................................................................................................................",
"........                                                                                                                ........",
"........                                                                                                                ........",
"........                                                                                                                ........",
"........                                                                                                                ........",
"........                                                                                                                ........",
"........                                                                                                                ........",
"........                                                                                                                ........",
"........                                                                                                                ........",
"........                                                                                                                ........",
"........                                                                                                                ........",
"........                                                                                                                ........",
"........                                                                                                                ........",
"........                                                                                                                ........",
"........                                                                                                                ........",
"........                                                                                                                ........",
"........                                                                                                                ........",
"........                                                                                                                ........",
"........                                                                                                                ........",
"........                                                                                                                ........",
"........                                                                                                                ........",
"........                                                                                                                ........",
"........                                                                                                                ........",
"........                                                                                                                ........",
"........                                                                                                                ........",
"........                                                                                                                ........",
"........                                                                                                                ........",
"........                                                                                                                ........",
"........                                                                                                                ........",
"........                                                                                                                ........",
"........                                                                                                                ........",
"........                                                                                                                ........",
"........                                                                                                                ........",
"........                                                                                                                ........",
"........                                                                                                                ........",
"........                                                        XXXX                                                    ........",
"........                                                     XXXXXXX                                                    ........",
"........                       XXXXXXXXXXXXX               XXXXXXXXX                         XXXXXXXXXX                 ........",
"........                   XXXXXXXXXXXXXXXXX             XXXXXXXXXXX                      XXXXXXXXXXXXXX                ........",
"........                  XXXXXXXXXXXXXXXXXX           XXXXXXXXXXXXX                    XXXXXXXXXXXXXXXX                ........",
"........                 XXXXXXXXXXXXXXXXXXX          XXXXXXXXXX                        XXXXXXXXXXXXXXXX                ........",
"........                XXXXXXXXXX                    XXXXXXXX                          XXXXXXXX    XXXX                ........",
"........               XXXXXXX                        XXXXXXX                           XXXXX       XXXX                ........",
"........               XXXXXX                         XXXXXXX                                       XXXX                ........",
"........              XXXXXXX                            XXXX                                       XXXX                ........",
"........              XXXXX                              XXXX                                       XXXX                ........",
"........             XXXXXX                              XXXX                                       XXXX                ........",
"........             XXXXX                              XXXXX                                       XXXX                ........",
"........             XXXXX                              XXXXX                                       XXXX                ........",
"........            XXXXX                               XXXXX                                       XXXX                ........",
"........            XXXXX                               XXXX                                       XXXXX                ........",
"........            XXXXX                               XXXX                                       XXXXX                ........",
"........            XXXX                                XXXX                                       XXXXX                ........",
"........            XXXX                                XXXX     XXXX                             XXXXX                 ........",
"........           XXXXX                                XXXX XXXXXXXX                             XXXXX                 ........",
"........           XXXXX                                XXXXXXXXXXXXX                            XXXXXX                 ........",
"........           XXXXX                                XXXXXXXXXXXXX                            XXXXX                  ........",
"........           XXXX                                 XXXXXXXXXXXX                            XXXXXX                  ........",
"........           XXXX                                 XXXXXXXX                                XXXXX                   ........",
"........           XXXX                                 XXXX                                   XXXXXX                   ........",
"........           XXXX                                 XXXX                                  XXXXXX                    ........",
"........           XXXX                                 XXXX                                XXXXXXXX                    ........",
"........           XXXX                                 XXXX                               XXXXXXXX                     ........",
"........           XXXXXX                               XXXX                               XXXXXXX                      ........",
"........           XXXXXX                               XXXX                              XXXXXXX                       ........",
"........           XXXXXXX                              XXXX                            XXXXXXX                         ........",
"........            XXXXXX                              XXXX                         XXXXXXXXXX                         ........",
"........             XXXXXXXXX                          XXXX                        XXXXXXXXXXXXXXXXXXXXXXX             ........",
"........              XXXXXXXXXX                       XXXXX              XXXXXXXXXXXXXXXXXXXXXXXXXXXXXXXXX             ........",
"........              XXXXXXXXXXX                      XXXXX    XXXXXXXXXXXXXXXXXXXXXXXXXXXXXXXXXXXXXXXXXXX             ........",
"........               XXXXXXXXXXXX                  XXXXXXXXXXXXXXXXXXXXXXXXXXXXXXXXXXXXXXXXXXXXXXXXXXXXXX             ........",
"........                   XXXXXXXXXXXXXXXXXXXXX     XXXXXXXXXXXXXXXXXXXXXXXXXXXXXXXX                                   ........",
"........                     XXXXXXXXXXXXXXXXXXXXXXXXXXXXXXXXXXXXXXXXXXXXXXXX                                           ........",
"........                      XXXXXXXXXXXXXXXXXXXXXXXXXXXXXXXXXXXXX                                                     ........",
"........                        XXXXXXXXXXXXXXXXXXXXXX                                                                  ........",
"........                                     XXXXXXXXX                                                                  ........",
"........                                                                                                                ........",
"........                                                                                                                ........",
"........                                                                                                                ........",
"........                                                                                                                ........",
"........                                                                                                                ........",
"........                                                                                                                ........",
"........                                                                                                                ........",
"........                                                                                                                ........",
"........                                                                                                                ........",
"........                                                                                                                ........",
"........                                                                                                                ........",
"........                                                                                                                ........",
"........                                                                                                                ........",
"........                                                                                                                ........",
"........                                                                                                                ........",
"........                                                                                                                ........",
"........                                                                                                                ........",
"........                                                                                                                ........",
"........                                                                                                                ........",
"........                                                                                                                ........",
"........                                                                                                                ........",
"........                                                                                                                ........",
"........                                                                                                                ........",
"........                                                                                                                ........",
"........                                                                                                                ........",
"........                                                                                                                ........",
"........                                                                                                                ........",
"........                                                                                                                ........",
"........                                                                                                                ........",
"........                                                                                                                ........",
"........                                                                                                                ........",
"........                                                                                                                ........",
"........                                                                                                                ........",
"........                                                                                                                ........",
"........                                                                                                                ........",
"........                                                                                                                ........",
"........                                                                                                                ........",
"................................................................................................................................",
"................................................................................................................................",
"................................................................................................................................",
"................................................................................................................................",
"................................................................................................................................",
"................................................................................................................................",
"................................................................................................................................",
"................................................................................................................................"
};
