/* XPM */
static char *_1f7d49361b34768bb4f68abaea1b5a9ZV52QxeGRho0l1Sq[] = {
/* columns rows colors chars-per-pixel */
"128 128 3 1 ",
"  c black",
". c #322E2E",
"X c white",
/* pixels */
"................................................................................................................................",
"................................................................................................................................",
"................................................................................................................................",
"................................................................................................................................",
"................................................................................................................................",
"................................................................................................................................",
"................................................................................................................................",
"................................................................................................................................",
"........                                                                                                                ........",
"........                                                                                                                ........",
"........                                                                                                                ........",
"........                                                                                                                ........",
"........                                                                                                                ........",
"........                                                                                                                ........",
"........                                                                                                                ........",
"........                                                                                                                ........",
"........                                                                                                                ........",
"........                                                                                                                ........",
"........                                                                                                                ........",
"........                                                                                                                ........",
"........                                                                                                                ........",
"........                                                                                                                ........",
"........                                                                                                                ........",
"........                                                                                                                ........",
"........                                                                                                                ........",
"........                                                                                                                ........",
"........                                                                                                                ........",
"........                                                                                                                ........",
"........                                                                                                                ........",
"........                                                                                                                ........",
"........                                                                                                                ........",
"........                                                                                                                ........",
"........                                                       XXXX              XXXX                                   ........",
"........                                                       XXXX             XXXXX                                   ........",
"........                              XXXXXX                  XXXXX             XXXXX                                   ........",
"........                           XXXXXXXXXXX                XXXXX             XXXXX                                   ........",
"........                        XXXXXXXXXXXXXX                XXXXX            XXXXX                                    ........",
"........                      XXXXXXXXXXXXXXXX                XXXXX            XXXXX                                    ........",
"........                     XXXXXXXXXXXXXXXXX                XXXXX            XXXXX                   XXXXX            ........",
"........                  XXXXXXXXXXXX                        XXXXX            XXXXX                   XXXXX            ........",
"........                 XXXXXXXXXX                          XXXXXXX           XXXX                    XXXXX            ........",
"........                XXXXXXXXX                            XXXXXXX          XXXXX                    XXXXX            ........",
"........               XXXXXXXXX                             XXXXXXX          XXXXX                   XXXXX             ........",
"........               XXXXXX                                XXXXXXX         XXXXXX                   XXXXX             ........",
"........              XXXXXX                                XXXXXXXX         XXXXX                   XXXXXX             ........",
"........              XXXXXX                                XXXXXXXX         XXXXX                  XXXXXXX             ........",
"........              XXXXX                                 XXXXXXXX         XXXX                   XXXXXXX             ........",
"........             XXXXX                                  XXXXXXXX         XXXX                  XXXXXXX              ........",
"........             XXXXX                                 XXXXXXXXXX        XXXX                  XXXXXXX              ........",
"........            XXXXXX                                 XXXXXXXXXX        XXXX                 XXXXXXXX              ........",
"........            XXXXX                                  XXXXXXXXXX        XXXX                XXXXXXXXX              ........",
"........            XXXXX                                  XXXX  XXXX        XXXX               XXXXXXXXXX              ........",
"........            XXXX                                   XXXX  XXXX        XXXX              XXXXXXXXXXX              ........",
"........            XXXX                                   XXXX  XXXX        XXXX              XXXXXXXXXX               ........",
"........            XXXX                                   XXXX  XXXX        XXXX            XXXXXXX XXXX               ........",
"........           XXXXX                                  XXXXX  XXXX        XXXX         XXXXXXXXX  XXXX               ........",
"........           XXXXX                                  XXXXX  XXXX        XXXX      XXXXXXXXXXXX  XXXX               ........",
"........           XXXXX                                 XXXXXX  XXXXX       XXXX      XXXXXXXXXXX   XXXX               ........",
"........           XXXX                                  XXXXX   XXXXX       XXXX      XXXXXXXXX     XXXX               ........",
"........           XXXX                                  XXXXX   XXXXX       XXXX      XXXXXX       XXXXX               ........",
"........           XXXX                                 XXXXX     XXXXX      XXXX                   XXXXX               ........",
"........           XXXX                                 XXXXX     XXXXX      XXXX                   XXXXX               ........",
"........           XXXX                                 XXXXX     XXXXXX     XXXX                   XXXX                ........",
"........          XXXXX                                 XXXX       XXXXX     XXXX                   XXXX                ........",
"........          XXXXX                                XXXXX       XXXXX     XXXX                   XXXX                ........",
"........          XXXXX                                XXXXX        XXXXX    XXXX                   XXXX                ........",
"........          XXXXX                                XXXXX        XXXXX    XXXX                   XXXX                ........",
"........          XXXXX                                XXXX         XXXXXX   XXXX                   XXXX                ........",
"........           XXXX                               XXXXX          XXXXX   XXXX                   XXXX                ........",
"........           XXXX                               XXXXX          XXXXX   XXXX                  XXXXX                ........",
"........           XXXXX                             XXXXXX           XXXXX  XXXX                  XXXXX                ........",
"........           XXXXXX                            XXXXX            XXXXXXXXXXX    XXXXXXXXXX    XXXXX                ........",
"........           XXXXXX                           XXXXXX            XXXXXXXXXXX    XXXXXXXXXXXXXXXXXXXXXXXXXXXX       ........",
"........            XXXXXXX                         XXXXX              XXXXXXXXXX    XXXXXXXXXXXXXXXXXXXXXXXXXXXX       ........",
"........             XXXXXXX                        XXXXX               XXXXXXXX     XXXXXXXXXXXXXXXXXXXXXXXXXXXX       ........",
"........             XXXXXXXX                       XXXX                 XXXXXXX         XXXXXXXXXXXXXXXXXXXXXXXX       ........",
"........              XXXXXXXXX                     XXXX                 XXXXXXX           XXXXXXX                      ........",
"........                XXXXXXXXX                  XXXXX                 XXXXXXX                                        ........",
"........                 XXXXXXXXXXXXXXXXXXXXXXX   XXXXX                 XXXXXXX                                        ........",
"........                  XXXXXXXXXXXXXXXXXXXXXX  XXXXXX                  XXXXX                                         ........",
"........                    XXXXXXXXXXXXXXXXXXXX  XXXXX                   XXXX                                          ........",
"........                      XXXXXXXXXXXXXXXXXX  XXXXX                                                                 ........",
"........                                          XXXX                                                                  ........",
"........                                                                                                                ........",
"........                                                                                                                ........",
"........                                                                                                                ........",
"........                                                                                                                ........",
"........                                                                                                                ........",
"........                                                                                                                ........",
"........                                                                                                                ........",
"........                                                                                                                ........",
"........                                                                                                                ........",
"........                                                                                                                ........",
"........                                                                                                                ........",
"........                                                                                                                ........",
"........                                                                                                                ........",
"........                                                                                                                ........",
"........                                                                                                                ........",
"........                                                                                                                ........",
"........                                                                                                                ........",
"........                                                                                                                ........",
"........                                                                                                                ........",
"........                                                                                                                ........",
"........                                                                                                                ........",
"........                                                                                                                ........",
"........                                                                                                                ........",
"........                                                                                                                ........",
"........                                                                                                                ........",
"........                                                                                                                ........",
"........                                                                                                                ........",
"........                                                                                                                ........",
"........                                                                                                                ........",
"........                                                                                                                ........",
"........                                                                                                                ........",
"........                                                                                                                ........",
"........                                                                                                                ........",
"........                                                                                                                ........",
"........                                                                                                                ........",
"........                                                                                                                ........",
"........                                                                                                                ........",
"................................................................................................................................",
"................................................................................................................................",
"................................................................................................................................",
"................................................................................................................................",
"................................................................................................................................",
"................................................................................................................................",
"................................................................................................................................",
"................................................................................................................................"
};
