/* XPM */
static char *_f13c2feee13474c9384c956dd38ededDESoiB8wwc7IDGtA[] = {
/* columns rows colors chars-per-pixel */
"128 128 3 1 ",
"  c black",
". c #322E2E",
"X c white",
/* pixels */
"................................................................................................................................",
"................................................................................................................................",
"................................................................................................................................",
"................................................................................................................................",
"................................................................................................................................",
"................................................................................................................................",
"................................................................................................................................",
"................................................................................................................................",
"........                                                                                                                ........",
"........                                                                                                                ........",
"........                                                                                                                ........",
"........                                                                                                                ........",
"........                                                                                                                ........",
"........                                                                                                                ........",
"........                                                                                                                ........",
"........                                                                                                                ........",
"........                                                                                                                ........",
"........                                                                                                                ........",
"........                                                                                                                ........",
"........                                                                                                                ........",
"........                                                                                                                ........",
"........                                                                                                                ........",
"........                                                                                                                ........",
"........                                                                                                                ........",
"........                                                                                                                ........",
"........                                                                                                                ........",
"........                                                                                                                ........",
"........                                                                                                                ........",
"........                                                                                                                ........",
"........                                                                                                                ........",
"........                                                                                                                ........",
"........                                                                                                                ........",
"........                                                       XXXX              XXXX                                   ........",
"........                                                       XXXX             XXXXX                                   ........",
"........                              XXXXXX                  XXXXX             XXXXX                                   ........",
"........                           XXXXXXXXXXX                XXXXX             XXXXX              XXXXXX               ........",
"........                        XXXXXXXXXXXXXX                XXXXX            XXXXX             XXXXXXXXXX             ........",
"........                      XXXXXXXXXXXXXXXX                XXXXX            XXXXX           XXXXXXXXXXXX             ........",
"........                     XXXXXXXXXXXXXXXXX                XXXXX            XXXXX          XXXXXXXXXXXXX             ........",
"........                  XXXXXXXXXXXX                        XXXXX            XXXXX          XXXXXXXXXXXXX             ........",
"........                 XXXXXXXXXX                          XXXXXXX           XXXX           XXXXXX   XXXX             ........",
"........                XXXXXXXXX                            XXXXXXX          XXXXX           XXXX     XXXXX            ........",
"........               XXXXXXXXX                             XXXXXXX          XXXXX                    XXXXX            ........",
"........               XXXXXX                                XXXXXXX         XXXXXX                    XXXXX            ........",
"........              XXXXXX                                XXXXXXXX         XXXXX                      XXXX            ........",
"........              XXXXXX                                XXXXXXXX         XXXXX                      XXXX            ........",
"........              XXXXX                                 XXXXXXXX         XXXX                       XXXX            ........",
"........             XXXXX                                  XXXXXXXX         XXXX                       XXXXX           ........",
"........             XXXXX                                 XXXXXXXXXX        XXXX                       XXXXX           ........",
"........            XXXXXX                                 XXXXXXXXXX        XXXX                       XXXXX           ........",
"........            XXXXX                                  XXXXXXXXXX        XXXX                        XXXX           ........",
"........            XXXXX                                  XXXX  XXXX        XXXX                        XXXX           ........",
"........            XXXX                                   XXXX  XXXX        XXXX                        XXXX           ........",
"........            XXXX                                   XXXX  XXXX        XXXX                        XXXX           ........",
"........            XXXX                                   XXXX  XXXX        XXXX                        XXXX           ........",
"........           XXXXX                                  XXXXX  XXXX        XXXX                        XXXX           ........",
"........           XXXXX                                  XXXXX  XXXX        XXXX                        XXXX           ........",
"........           XXXXX                                 XXXXXX  XXXXX       XXXX                       XXXXX           ........",
"........           XXXX                                  XXXXX   XXXXX       XXXX                       XXXXX           ........",
"........           XXXX                                  XXXXX   XXXXX       XXXX                       XXXXX           ........",
"........           XXXX                                 XXXXX     XXXXX      XXXX                       XXXX            ........",
"........           XXXX                                 XXXXX     XXXXX      XXXX                      XXXXX            ........",
"........           XXXX                                 XXXXX     XXXXXX     XXXX                      XXXXX            ........",
"........          XXXXX                                 XXXX       XXXXX     XXXX                     XXXXXX            ........",
"........          XXXXX                                XXXXX       XXXXX     XXXX                     XXXXX             ........",
"........          XXXXX                                XXXXX        XXXXX    XXXX                    XXXXXX             ........",
"........          XXXXX                                XXXXX        XXXXX    XXXX                   XXXXXX              ........",
"........          XXXXX                                XXXX         XXXXXX   XXXX                  XXXXXXX              ........",
"........           XXXX                               XXXXX          XXXXX   XXXX                  XXXXXX               ........",
"........           XXXX                               XXXXX          XXXXX   XXXX                 XXXXXX                ........",
"........           XXXXX                             XXXXXX           XXXXX  XXXX                 XXXXX                 ........",
"........           XXXXXX                            XXXXX            XXXXXXXXXXX               XXXXXXX                 ........",
"........           XXXXXX                           XXXXXX            XXXXXXXXXXX              XXXXXXX                  ........",
"........            XXXXXXX                         XXXXX              XXXXXXXXXX             XXXXXXXX                  ........",
"........             XXXXXXX                        XXXXX               XXXXXXXX              XXXXXXX                   ........",
"........             XXXXXXXX                       XXXX                 XXXXXXX             XXXXXX                     ........",
"........              XXXXXXXXX                     XXXX                 XXXXXXX           XXXXXXX                      ........",
"........                XXXXXXXXX                  XXXXX                 XXXXXXX         XXXXXXXXX                      ........",
"........                 XXXXXXXXXXXXXXXXXXXXXXX   XXXXX                 XXXXXXX        XXXXXXXXXXX                     ........",
"........                  XXXXXXXXXXXXXXXXXXXXXX  XXXXXX                  XXXXX         XXXXXXXXXXXXXXX                 ........",
"........                    XXXXXXXXXXXXXXXXXXXX  XXXXX                   XXXX          XXXXXXXXXXXXXXXXXX              ........",
"........                      XXXXXXXXXXXXXXXXXX  XXXXX                                 XXXXXXXXXXXXXXXXXXXXXX          ........",
"........                                          XXXX                                          XXXXXXXXXXXXXX          ........",
"........                                                                                            XXXXXXXXXX          ........",
"........                                                                                               XXXXXXX          ........",
"........                                                                                                                ........",
"........                                                                                                                ........",
"........                                                                                                                ........",
"........                                                                                                                ........",
"........                                                                                                                ........",
"........                                                                                                                ........",
"........                                                                                                                ........",
"........                                                                                                                ........",
"........                                                                                                                ........",
"........                                                                                                                ........",
"........                                                                                                                ........",
"........                                                                                                                ........",
"........                                                                                                                ........",
"........                                                                                                                ........",
"........                                                                                                                ........",
"........                                                                                                                ........",
"........                                                                                                                ........",
"........                                                                                                                ........",
"........                                                                                                                ........",
"........                                                                                                                ........",
"........                                                                                                                ........",
"........                                                                                                                ........",
"........                                                                                                                ........",
"........                                                                                                                ........",
"........                                                                                                                ........",
"........                                                                                                                ........",
"........                                                                                                                ........",
"........                                                                                                                ........",
"........                                                                                                                ........",
"........                                                                                                                ........",
"........                                                                                                                ........",
"........                                                                                                                ........",
"........                                                                                                                ........",
"........                                                                                                                ........",
"........                                                                                                                ........",
"................................................................................................................................",
"................................................................................................................................",
"................................................................................................................................",
"................................................................................................................................",
"................................................................................................................................",
"................................................................................................................................",
"................................................................................................................................",
"................................................................................................................................"
};
