/* XPM */
static char *da057aab8c4d4b0e8a149ca2c0aa3814Fy5IOlanjFqnkq1P[] = {
/* columns rows colors chars-per-pixel */
"128 128 3 1 ",
"  c black",
". c #322E2E",
"X c white",
/* pixels */
"................................................................................................................................",
"................................................................................................................................",
"................................................................................................................................",
"................................................................................................................................",
"................................................................................................................................",
"................................................................................................................................",
"................................................................................................................................",
"................................................................................................................................",
"........                                                                                                                ........",
"........                                                                                                                ........",
"........                                                                                                                ........",
"........                                                                                                                ........",
"........                                                                                                                ........",
"........                                                                                                                ........",
"........                                                                                                                ........",
"........                                                                                                                ........",
"........                                                                                                                ........",
"........                                                                                                                ........",
"........                                                                                                                ........",
"........                                                                                                                ........",
"........                                                                                                                ........",
"........                                                                                                                ........",
"........                                                                                                                ........",
"........                                                                                                                ........",
"........                                                                                                                ........",
"........                                                                                                                ........",
"........                                                                                                                ........",
"........                                                                                                                ........",
"........                                                                                                                ........",
"........                                                                                                                ........",
"........                                                                                                                ........",
"........                                                          XXXXXXXXXXX                                           ........",
"........                       XXXXXXXXXXXXX                    XXXXXXXXXXXXX                                           ........",
"........                   XXXXXXXXXXXXXXXXXX                   XXXXXXXXXXXXX                           XXXX            ........",
"........               XXXXXXXXXXXXXXXXXXXXXX                  XXXXXXXXXXXXXX                           XXXX            ........",
"........              XXXXXXXXXXXXXXXXXXXXXXX                 XXXXXXX    XXXX                           XXXX            ........",
"........             XXXXXXXXXXXXX       XXXX                 XXXXXX                                   XXXXX            ........",
"........            XXXXXXXXXX                               XXXXXX                                    XXXXX            ........",
"........          XXXXXXXXX                                  XXXXX                                     XXXXX            ........",
"........         XXXXXXXX                                    XXXXX                                    XXXXXX            ........",
"........         XXXXXXX                                     XXXX                                    XXXXXXX            ........",
"........         XXXXXX                                      XXXX                                    XXXXXXX            ........",
"........        XXXXX                                        XXXXX                                   XXXXXX             ........",
"........        XXXXX                                        XXXXX                                   XXXXXX             ........",
"........        XXXXX                                        XXXXX                                 XXXXXXXX             ........",
"........        XXXX                                          XXXXX                                XXXXXXXX             ........",
"........       XXXXX                                          XXXXXX                              XXXXXXXXX             ........",
"........       XXXXX                                          XXXXXXX                             XXXXXXXXX             ........",
"........       XXXXX                                           XXXXXXX                          XXXXXXXXXXX             ........",
"........       XXXX                                             XXXXXX                        XXXXXXXXXXXX              ........",
"........       XXXX                                              XXXXXXX                     XXXXXXXXXXXXX              ........",
"........       XXXX                                               XXXXXXX                   XXXXXXXXX XXXX              ........",
"........       XXXX                                               XXXXXXXX              XXXXXXXXXXX   XXXX              ........",
"........       XXXX                                                XXXXXXXX            XXXXXXXXXX    XXXXX              ........",
"........       XXXX                                                  XXXXXXX           XXXXXXXXX     XXXXX              ........",
"........       XXXX                                                   XXXXXXX          XXXXXXXX      XXXXX              ........",
"........      XXXXX                                                    XXXXXX          XXXX          XXXX               ........",
"........      XXXXX                                                     XXXXXX                       XXXX               ........",
"........      XXXXX                                                      XXXXX                       XXXX               ........",
"........      XXXX                                                       XXXXX                       XXXX               ........",
"........      XXXXX                                                       XXXXX                      XXXX               ........",
"........      XXXXX                                                       XXXXX                      XXXX               ........",
"........      XXXXX                                                       XXXXX                      XXXX               ........",
"........       XXXXX                                                       XXXX                      XXXX               ........",
"........       XXXXXX                                                      XXXX                      XXXX               ........",
"........       XXXXXX                                                      XXXX                     XXXXX               ........",
"........        XXXXXXX                                XXXX                XXXX                     XXXXX               ........",
"........         XXXXXXX                              XXXXX                XXXX                     XXXXX               ........",
"........         XXXXXXXXX                            XXXXX                XXXX                    XXXXX                ........",
"........          XXXXXXXXX                          XXXXXX                XXXX            XXXXXXXXXXXXX                ........",
"........            XXXXXXXX                        XXXXXX                 XXXX            XXXXXXXXXXXXXXXXXXXX         ........",
"........             XXXXXXXXXX                   XXXXXXXX      XXXX      XXXXX            XXXXXXXXXXXXXXXXXXXX         ........",
"........               XXXXXXXXXX                XXXXXXXX       XXXXX    XXXXXX            XXXXXXXXXXXXXXXXXXXX         ........",
"........                XXXXXXXXXXXXXX          XXXXXXXX        XXXXXXXXXXXXXXX                    XXXXXXXXXXXX         ........",
"........                 XXXXXXXXXXXXXXXXXXXXXXXXXXXXXX         XXXXXXXXXXXXXXX                                         ........",
"........                    XXXXXXXXXXXXXXXXXXXXXXXXX           XXXXXXXXXXXXXX                                          ........",
"........                      XXXXXXXXXXXXXXXXXXXXXX             XXXXXXXXXXX                                            ........",
"........                           XXXXXXXXXXXXXXXXX                                                                    ........",
"........                                                                                                                ........",
"........                                                                                                                ........",
"........                                                                                                                ........",
"........                                                                                                                ........",
"........                                                                                                                ........",
"........                                                                                                                ........",
"........                                                                                                                ........",
"........                                                                                                                ........",
"........                                                                                                                ........",
"........                                                                                                                ........",
"........                                                                                                                ........",
"........                                                                                                                ........",
"........                                                                                                                ........",
"........                                                                                                                ........",
"........                                                                                                                ........",
"........                                                                                                                ........",
"........                                                                                                                ........",
"........                                                                                                                ........",
"........                                                                                                                ........",
"........                                                                                                                ........",
"........                                                                                                                ........",
"........                                                                                                                ........",
"........                                                                                                                ........",
"........                                                                                                                ........",
"........                                                                                                                ........",
"........                                                                                                                ........",
"........                                                                                                                ........",
"........                                                                                                                ........",
"........                                                                                                                ........",
"........                                                                                                                ........",
"........                                                                                                                ........",
"........                                                                                                                ........",
"........                                                                                                                ........",
"........                                                                                                                ........",
"........                                                                                                                ........",
"........                                                                                                                ........",
"........                                                                                                                ........",
"........                                                                                                                ........",
"........                                                                                                                ........",
"........                                                                                                                ........",
"........                                                                                                                ........",
"........                                                                                                                ........",
"................................................................................................................................",
"................................................................................................................................",
"................................................................................................................................",
"................................................................................................................................",
"................................................................................................................................",
"................................................................................................................................",
"................................................................................................................................",
"................................................................................................................................"
};
