/* XPM */
static char *f0af36230f0f443ae75c73a0d117d5a734lIRgLQouAAA81S[] = {
/* columns rows colors chars-per-pixel */
"128 128 3 1 ",
"  c black",
". c #322E2E",
"X c white",
/* pixels */
"................................................................................................................................",
"................................................................................................................................",
"................................................................................................................................",
"................................................................................................................................",
"................................................................................................................................",
"................................................................................................................................",
"................................................................................................................................",
"................................................................................................................................",
"........                                                                                                                ........",
"........                                                                                                                ........",
"........                                                                                                                ........",
"........                                                                                                                ........",
"........                                                                                                                ........",
"........                                                                                                                ........",
"........                                                                                                                ........",
"........                                                                                                                ........",
"........                                                                                                                ........",
"........                                                                                                                ........",
"........                                                                                                                ........",
"........                                                                                                                ........",
"........                                                                                                                ........",
"........                                                                                                                ........",
"........                                                                                                                ........",
"........                                                                                                                ........",
"........                                                                                                                ........",
"........                                                                                                                ........",
"........                                                                                                                ........",
"........                                                                                                                ........",
"........                                                                                                                ........",
"........                                                                                                                ........",
"........                                                                                                                ........",
"........                                                          XXXXXXXXXXX                                           ........",
"........                       XXXXXXXXXXXXX                    XXXXXXXXXXXXX               XXXXXXXX                    ........",
"........                   XXXXXXXXXXXXXXXXXX                   XXXXXXXXXXXXX              XXXXXXXXX                    ........",
"........               XXXXXXXXXXXXXXXXXXXXXX                  XXXXXXXXXXXXXX            XXXXXXXXXXXX                   ........",
"........              XXXXXXXXXXXXXXXXXXXXXXX                 XXXXXXX    XXXX            XXXXXXXXXXXXX                  ........",
"........             XXXXXXXXXXXXX       XXXX                 XXXXXX                     XXXXXX XXXXXX                  ........",
"........            XXXXXXXXXX                               XXXXXX                      XXXXX   XXXXX                  ........",
"........          XXXXXXXXX                                  XXXXX                       XXXX     XXXX                  ........",
"........         XXXXXXXX                                    XXXXX                                XXXX                  ........",
"........         XXXXXXX                                     XXXX                                 XXXX                  ........",
"........         XXXXXX                                      XXXX                                 XXXX                  ........",
"........        XXXXX                                        XXXXX                                XXXX                  ........",
"........        XXXXX                                        XXXXX                                XXXX                  ........",
"........        XXXXX                                        XXXXX                                XXXX                  ........",
"........        XXXX                                          XXXXX                               XXXX                  ........",
"........       XXXXX                                          XXXXXX                              XXXX                  ........",
"........       XXXXX                                          XXXXXXX                             XXXX                  ........",
"........       XXXXX                                           XXXXXXX                           XXXXX                  ........",
"........       XXXX                                             XXXXXX                           XXXXX                  ........",
"........       XXXX                                              XXXXXXX                        XXXXXX                  ........",
"........       XXXX                                               XXXXXXX                       XXXXX                   ........",
"........       XXXX                                               XXXXXXXX                     XXXXXX                   ........",
"........       XXXX                                                XXXXXXXX                    XXXXX                    ........",
"........       XXXX                                                  XXXXXXX                  XXXXXX                    ........",
"........       XXXX                                                   XXXXXXX                XXXXXX                     ........",
"........      XXXXX                                                    XXXXXX                XXXXXX                     ........",
"........      XXXXX                                                     XXXXXX              XXXXXX                      ........",
"........      XXXXX                                                      XXXXX             XXXXXX                       ........",
"........      XXXX                                                       XXXXX             XXXXXX                       ........",
"........      XXXXX                                                       XXXXX          XXXXXXX                        ........",
"........      XXXXX                                                       XXXXX         XXXXXXX                         ........",
"........      XXXXX                                                       XXXXX         XXXXXXX                         ........",
"........       XXXXX                                                       XXXX        XXXXXXX                          ........",
"........       XXXXXX                                                      XXXX        XXXXX                            ........",
"........       XXXXXX                                                      XXXX        XXXXX                            ........",
"........        XXXXXXX                                XXXX                XXXX       XXXXX                             ........",
"........         XXXXXXX                              XXXXX                XXXX      XXXXXX                             ........",
"........         XXXXXXXXX                            XXXXX                XXXX     XXXXXXX                             ........",
"........          XXXXXXXXX                          XXXXXX                XXXX    XXXXXXX                              ........",
"........            XXXXXXXX                        XXXXXX                 XXXX   XXXXXXXXXXXXXXXXXXXXXX                ........",
"........             XXXXXXXXXX                   XXXXXXXX      XXXX      XXXXX   XXXXXXXXXXXXXXXXXXXXXX                ........",
"........               XXXXXXXXXX                XXXXXXXX       XXXXX    XXXXXX   XXXXXXXXXXXXXXXXXXXXXX                ........",
"........                XXXXXXXXXXXXXX          XXXXXXXX        XXXXXXXXXXXXXXX   XXXXXXXXXXXXXXXXXXXXXX                ........",
"........                 XXXXXXXXXXXXXXXXXXXXXXXXXXXXXX         XXXXXXXXXXXXXXX                                         ........",
"........                    XXXXXXXXXXXXXXXXXXXXXXXXX           XXXXXXXXXXXXXX                                          ........",
"........                      XXXXXXXXXXXXXXXXXXXXXX             XXXXXXXXXXX                                            ........",
"........                           XXXXXXXXXXXXXXXXX                                                                    ........",
"........                                                                                                                ........",
"........                                                                                                                ........",
"........                                                                                                                ........",
"........                                                                                                                ........",
"........                                                                                                                ........",
"........                                                                                                                ........",
"........                                                                                                                ........",
"........                                                                                                                ........",
"........                                                                                                                ........",
"........                                                                                                                ........",
"........                                                                                                                ........",
"........                                                                                                                ........",
"........                                                                                                                ........",
"........                                                                                                                ........",
"........                                                                                                                ........",
"........                                                                                                                ........",
"........                                                                                                                ........",
"........                                                                                                                ........",
"........                                                                                                                ........",
"........                                                                                                                ........",
"........                                                                                                                ........",
"........                                                                                                                ........",
"........                                                                                                                ........",
"........                                                                                                                ........",
"........                                                                                                                ........",
"........                                                                                                                ........",
"........                                                                                                                ........",
"........                                                                                                                ........",
"........                                                                                                                ........",
"........                                                                                                                ........",
"........                                                                                                                ........",
"........                                                                                                                ........",
"........                                                                                                                ........",
"........                                                                                                                ........",
"........                                                                                                                ........",
"........                                                                                                                ........",
"........                                                                                                                ........",
"........                                                                                                                ........",
"........                                                                                                                ........",
"........                                                                                                                ........",
"........                                                                                                                ........",
"........                                                                                                                ........",
"................................................................................................................................",
"................................................................................................................................",
"................................................................................................................................",
"................................................................................................................................",
"................................................................................................................................",
"................................................................................................................................",
"................................................................................................................................",
"................................................................................................................................"
};
