/* XPM */
static char *a83e3f78dc6643fa85c12754b39df63bxqHLcSyNvyweLe56[] = {
/* columns rows colors chars-per-pixel */
"128 128 3 1 ",
"  c black",
". c #322E2E",
"X c white",
/* pixels */
"................................................................................................................................",
"................................................................................................................................",
"................................................................................................................................",
"................................................................................................................................",
"................................................................................................................................",
"................................................................................................................................",
"................................................................................................................................",
"................................................................................................................................",
"........                                                                                                                ........",
"........                                                                                                                ........",
"........                                                                                                                ........",
"........                                                                                                                ........",
"........                                                                                                                ........",
"........                                                                                                                ........",
"........                                                                                                                ........",
"........                                                                                                                ........",
"........                                                                                                                ........",
"........                                                                                                                ........",
"........                                                                                                                ........",
"........                                                                                                                ........",
"........                                                                                                                ........",
"........                                                                                                                ........",
"........                                                                                                                ........",
"........                                                                                                                ........",
"........                                                                                                                ........",
"........                                                                                                                ........",
"........                                                                                                                ........",
"........                                                                                                                ........",
"........                                                                                                                ........",
"........                                                                                                                ........",
"........                                                                                                                ........",
"........                                                                                                                ........",
"........                                                                                                                ........",
"........                                                                                                                ........",
"........                                                                                                                ........",
"........                                                                                                                ........",
"........                                                                                                                ........",
"........                                                                         XXXX                    XXXX           ........",
"........                 XXXXXXXXX                                               XXXX                    XXXX           ........",
"........             XXXXXXXXXXXXX                                               XXXX                   XXXXX           ........",
"........           XXXXXXXXXXXXXXX                                              XXXXX                   XXXXX           ........",
"........           XXXXXXXXXXXXXXX                  XXXXX                       XXXXX                   XXXXX           ........",
"........          XXXXXXXXXX  XXXX                  XXXXX                       XXXXX                  XXXXXX           ........",
"........         XXXXXXX                           XXXXXX                       XXXX                   XXXXX            ........",
"........        XXXXXXX                            XXXXXX                       XXXX                   XXXXX            ........",
"........       XXXXXXX                             XXXXX                       XXXXX                 XXXXXXX            ........",
"........      XXXXXXX                              XXXX                        XXXXX                XXXXXXXX            ........",
"........     XXXXXXX                              XXXXX                        XXXXX                XXXXXXXX            ........",
"........    XXXXXXX                               XXXXX                       XXXXX                XXXXXXXX             ........",
"........   XXXXXXX                                XXXXX                       XXXXX                XXXXXXXX             ........",
"........   XXXXXX                                XXXXX     XXXX              XXXXXX               XXXXXXXXX             ........",
"........   XXXXXX                                XXXXX     XXXX              XXXXX              XXXXXXXXXXX             ........",
"........  XXXXX                                 XXXXXX     XXXX             XXXXXX             XXXXXXXXXXX              ........",
"........  XXXXX                                 XXXXX     XXXXX             XXXXX            XXXXXXXXXXXXX              ........",
"........  XXXXX                                 XXXXX     XXXXX            XXXXXX        XXXXXXXXXXXX XXXX              ........",
"........ XXXXX                                  XXXX     XXXXXX            XXXXX         XXXXXXXXXX   XXXX              ........",
"........ XXXXX                                  XXXX    XXXXXXX           XXXXXX         XXXXXXXXX   XXXXX              ........",
"........ XXXXX                                 XXXXX    XXXXXX            XXXXX          XXXXXXX     XXXXX              ........",
"........ XXXX                                  XXXXX   XXXXXXX           XXXXXX                      XXXXX              ........",
"........ XXXX                                  XXXXX  XXXXXXXX           XXXXX                       XXXX               ........",
"........ XXXX                                  XXXX   XXXXXXXX          XXXXXX                       XXXX               ........",
"........ XXXX                                  XXXX  XXXXXXXX          XXXXXX                        XXXX               ........",
"........ XXXXX                                 XXXX XXXXXXXXX         XXXXXXX                        XXXX               ........",
"........ XXXXXX                                XXXXXXXXXXXXXX        XXXXXXX                         XXXX               ........",
"........ XXXXXXX                               XXXXXXXXXXXXXX       XXXXXXX                         XXXXX               ........",
"........  XXXXXXX                              XXXXXXXXX XXXX     XXXXXXXX                          XXXXX               ........",
"........   XXXXXXX                             XXXXXXXX  XXXXX  XXXXXXXXX                           XXXXX               ........",
"........    XXXXXXX                            XXXXXXX   XXXXX XXXXXXXXX                            XXXX                ........",
"........     XXXXXXX                                     XXXXXXXXXXXXXX                            XXXXX                ........",
"........      XXXXXXX                     XXXXXX          XXXXXXXXXXX                              XXXXX                ........",
"........      XXXXXXXXX                  XXXXXXX          XXXXXXXXX                                XXXXX                ........",
"........        XXXXXXXXXXXXXXXX      XXXXXXXXXX           XXXXXXX                                XXXXX                 ........",
"........        XXXXXXXXXXXXXXXXXXXXXXXXXXXXXXXX           XXXXX                                 XXXXXX                 ........",
"........          XXXXXXXXXXXXXXXXXXXXXXXXXXX                                        XXXXXXXXXXXXXXXXXXX                ........",
"........            XXXXXXXXXXXXXXXXXXXXXXXX                                         XXXXXXXXXXXXXXXXXXXXXXXXXX         ........",
"........                     XXXXXXXXXXXX                                            XXXXXXXXXXXXXXXXXXXXXXXXXX         ........",
"........                                                                             XXXXXXXXXXXXXXXXXXXXXXXXXX         ........",
"........                                                                              XXXXXXXXXXXX   XXXXXXXXXX         ........",
"........                                                                                XXXXXXXX                        ........",
"........                                                                                                                ........",
"........                                                                                                                ........",
"........                                                                                                                ........",
"........                                                                                                                ........",
"........                                                                                                                ........",
"........                                                                                                                ........",
"........                                                                                                                ........",
"........                                                                                                                ........",
"........                                                                                                                ........",
"........                                                                                                                ........",
"........                                                                                                                ........",
"........                                                                                                                ........",
"........                                                                                                                ........",
"........                                                                                                                ........",
"........                                                                                                                ........",
"........                                                                                                                ........",
"........                                                                                                                ........",
"........                                                                                                                ........",
"........                                                                                                                ........",
"........                                                                                                                ........",
"........                                                                                                                ........",
"........                                                                                                                ........",
"........                                                                                                                ........",
"........                                                                                                                ........",
"........                                                                                                                ........",
"........                                                                                                                ........",
"........                                                                                                                ........",
"........                                                                                                                ........",
"........                                                                                                                ........",
"........                                                                                                                ........",
"........                                                                                                                ........",
"........                                                                                                                ........",
"........                                                                                                                ........",
"........                                                                                                                ........",
"........                                                                                                                ........",
"........                                                                                                                ........",
"........                                                                                                                ........",
"........                                                                                                                ........",
"........                                                                                                                ........",
"........                                                                                                                ........",
"........                                                                                                                ........",
"................................................................................................................................",
"................................................................................................................................",
"................................................................................................................................",
"................................................................................................................................",
"................................................................................................................................",
"................................................................................................................................",
"................................................................................................................................",
"................................................................................................................................"
};
