/* XPM */
static char *_b636822136d4640f1119607a0938b35EDIq2AHqnSACuwcN[] = {
/* columns rows colors chars-per-pixel */
"128 128 3 1 ",
"  c black",
". c #322E2E",
"X c white",
/* pixels */
"................................................................................................................................",
"................................................................................................................................",
"................................................................................................................................",
"................................................................................................................................",
"................................................................................................................................",
"................................................................................................................................",
"................................................................................................................................",
"................................................................................................................................",
"........                                                                                                                ........",
"........                                                                                                                ........",
"........                                                                                                                ........",
"........                                                                                                                ........",
"........                                                                                                                ........",
"........                                                                                                                ........",
"........                                                                                                                ........",
"........                                                                                                                ........",
"........                                                                                                                ........",
"........                                                                                                                ........",
"........                                                                                                                ........",
"........                                                                                                                ........",
"........                                                                                                                ........",
"........                                                                                                                ........",
"........                                                                                                                ........",
"........                                                                                                                ........",
"........                                                                                                                ........",
"........                                                                                                                ........",
"........                                                                                                                ........",
"........                                                                                                                ........",
"........                                                                                                                ........",
"........                                                                                                                ........",
"........                                                                                                                ........",
"........                                                                                                                ........",
"........                                                                                                                ........",
"........                                                                                                                ........",
"........                                                                                                                ........",
"........                                                                                                                ........",
"........                                                                                                                ........",
"........                                                                         XXXX                                   ........",
"........                 XXXXXXXXX                                               XXXX                                   ........",
"........             XXXXXXXXXXXXX                                               XXXX                                   ........",
"........           XXXXXXXXXXXXXXX                                              XXXXX                                   ........",
"........           XXXXXXXXXXXXXXX                  XXXXX                       XXXXX                                   ........",
"........          XXXXXXXXXX  XXXX                  XXXXX                       XXXXX                                   ........",
"........         XXXXXXX                           XXXXXX                       XXXX              XXXXXXXXX             ........",
"........        XXXXXXX                            XXXXXX                       XXXX             XXXXXXXXXX             ........",
"........       XXXXXXX                             XXXXX                       XXXXX             XXXXXXXXXX             ........",
"........      XXXXXXX                              XXXX                        XXXXX             XXXXXXXXXX             ........",
"........     XXXXXXX                              XXXXX                        XXXXX             XXXXX XXXX             ........",
"........    XXXXXXX                               XXXXX                       XXXXX                    XXXX             ........",
"........   XXXXXXX                                XXXXX                       XXXXX                   XXXXX             ........",
"........   XXXXXX                                XXXXX     XXXX              XXXXXX                   XXXXX             ........",
"........   XXXXXX                                XXXXX     XXXX              XXXXX                   XXXXXX             ........",
"........  XXXXX                                 XXXXXX     XXXX             XXXXXX                  XXXXXX              ........",
"........  XXXXX                                 XXXXX     XXXXX             XXXXX                  XXXXXXX              ........",
"........  XXXXX                                 XXXXX     XXXXX            XXXXXX                XXXXXXXX               ........",
"........ XXXXX                                  XXXX     XXXXXX            XXXXX                XXXXXXXX                ........",
"........ XXXXX                                  XXXX    XXXXXXX           XXXXXX               XXXXXXXX                 ........",
"........ XXXXX                                 XXXXX    XXXXXX            XXXXX               XXXXXXXX                  ........",
"........ XXXX                                  XXXXX   XXXXXXX           XXXXXX             XXXXXXXX                    ........",
"........ XXXX                                  XXXXX  XXXXXXXX           XXXXX            XXXXXXXXX                     ........",
"........ XXXX                                  XXXX   XXXXXXXX          XXXXXX           XXXXXXXXXX                     ........",
"........ XXXX                                  XXXX  XXXXXXXX          XXXXXX          XXXXXXXXXX                       ........",
"........ XXXXX                                 XXXX XXXXXXXXX         XXXXXXX         XXXXXXXXX                         ........",
"........ XXXXXX                                XXXXXXXXXXXXXX        XXXXXXX        XXXXXXXXXXXXXXXXXXXX                ........",
"........ XXXXXXX                               XXXXXXXXXXXXXX       XXXXXXX         XXXXXXXXXXXXXXXXXXXXXXXXXXXXX       ........",
"........  XXXXXXX                              XXXXXXXXX XXXX     XXXXXXXX          XXXXXXXXXXXXXXXXXXXXXXXXXXXXX       ........",
"........   XXXXXXX                             XXXXXXXX  XXXXX  XXXXXXXXX           XXXXXXXXXXXXXXXXXXXXXXXXXXXXX       ........",
"........    XXXXXXX                            XXXXXXX   XXXXX XXXXXXXXX                             XXXXXXXXXXXX       ........",
"........     XXXXXXX                                     XXXXXXXXXXXXXX                                                 ........",
"........      XXXXXXX                     XXXXXX          XXXXXXXXXXX                                                   ........",
"........      XXXXXXXXX                  XXXXXXX          XXXXXXXXX                                                     ........",
"........        XXXXXXXXXXXXXXXX      XXXXXXXXXX           XXXXXXX                                                      ........",
"........        XXXXXXXXXXXXXXXXXXXXXXXXXXXXXXXX           XXXXX                                                        ........",
"........          XXXXXXXXXXXXXXXXXXXXXXXXXXX                                                                           ........",
"........            XXXXXXXXXXXXXXXXXXXXXXXX                                                                            ........",
"........                     XXXXXXXXXXXX                                                                               ........",
"........                                                                                                                ........",
"........                                                                                                                ........",
"........                                                                                                                ........",
"........                                                                                                                ........",
"........                                                                                                                ........",
"........                                                                                                                ........",
"........                                                                                                                ........",
"........                                                                                                                ........",
"........                                                                                                                ........",
"........                                                                                                                ........",
"........                                                                                                                ........",
"........                                                                                                                ........",
"........                                                                                                                ........",
"........                                                                                                                ........",
"........                                                                                                                ........",
"........                                                                                                                ........",
"........                                                                                                                ........",
"........                                                                                                                ........",
"........                                                                                                                ........",
"........                                                                                                                ........",
"........                                                                                                                ........",
"........                                                                                                                ........",
"........                                                                                                                ........",
"........                                                                                                                ........",
"........                                                                                                                ........",
"........                                                                                                                ........",
"........                                                                                                                ........",
"........                                                                                                                ........",
"........                                                                                                                ........",
"........                                                                                                                ........",
"........                                                                                                                ........",
"........                                                                                                                ........",
"........                                                                                                                ........",
"........                                                                                                                ........",
"........                                                                                                                ........",
"........                                                                                                                ........",
"........                                                                                                                ........",
"........                                                                                                                ........",
"........                                                                                                                ........",
"........                                                                                                                ........",
"........                                                                                                                ........",
"........                                                                                                                ........",
"........                                                                                                                ........",
"........                                                                                                                ........",
"................................................................................................................................",
"................................................................................................................................",
"................................................................................................................................",
"................................................................................................................................",
"................................................................................................................................",
"................................................................................................................................",
"................................................................................................................................",
"................................................................................................................................"
};
