/* XPM */
static char *_341cd910d444388a3c10a7f147f6ae5Ih91WdiSZIkfQeqy[] = {
/* columns rows colors chars-per-pixel */
"64 64 2 1 ",
"  c black",
". c white",
/* pixels */
"                                                                ",
"                                                                ",
"                                                                ",
"                                                                ",
"                                                                ",
"                                                                ",
"                                                                ",
"                                                                ",
"                                                                ",
"                                                                ",
"                                                                ",
"                                                                ",
"              ........                  ...........             ",
"               .      ..................          .             ",
"               .                                 .              ",
"                .                                .              ",
"                .                               .               ",
"                .                               .               ",
"                .                               .               ",
"                .         .                     .               ",
"                .         .......              .                ",
"                .         .      .....         .                ",
"                .         .           .        .                ",
"                .         .           ..       .                ",
"                .         .            .       .                ",
"                .         .            .       .                ",
"                .        .             .       .                ",
"                .        .             .       .                ",
"                .        .             .       .                ",
"                .        .             .       .                ",
"                .       .              .       .                ",
"                .       .            ..        .                ",
"               .        .         ...          .                ",
"               .       ..       ..             .                ",
"               .             ...               .                ",
"               .        .....                  .                ",
"               .                               .                ",
"               .                               .                ",
"              .                                 .               ",
"              .                                 .               ",
"              .                                 .               ",
"              .                                  .              ",
"             .                                   .              ",
"             .                                   .              ",
"            .   ..........................        .             ",
"           .....                          .........             ",
"           ..                                    ...            ",
"          .                                        ..           ",
"         .                                                      ",
"                                                                ",
"                                                                ",
"                                                                ",
"                                                                ",
"                                                                ",
"                                                                ",
"                                                                ",
"                                                                ",
"                                                                ",
"                                                                ",
"                                                                ",
"                                                                ",
"                                                                ",
"                                                                ",
"                                                                "
};
