/* XPM */
static char *_9b610d8ce174da1b61e2c61131e1f2apUBKkf8REJE1XQvH[] = {
/* columns rows colors chars-per-pixel */
"64 64 16 1 ",
"  c #686868",
". c #535353",
"X c #3F3F3F",
"o c #353535",
"O c #5A4424",
"+ c #553A1F",
"@ c #664D28",
"# c #6B5332",
"$ c #A2A2A2",
"% c gray52",
"& c #805E36",
"* c #785836",
"= c gray61",
"- c #997140",
"; c #797979",
": c #4D3317",
/* pixels */
" .XoOOoXXXXo++@@OO@@OOO@++@@OOO@OO@@++OOOOOOOO++++++OO@@@#####++",
".XXoO@OooooO++@#@O@#OO@@O+#@OO@@O@#@O+O@OOOO+++$$%%+++OO@@####++",
".XoX@@OO@OOO+O###@#&@O@#@O*#@O#@@##@@+@@O@O++$$====%%++O@#*@##O+",
"Xooo#@@@OO@OO+#*#@&&*@*#@O*#@O#@####@+@@O@++$$%%O+==%%+@##*@##O+",
"&*&&#*#@@##O++#**#&*#@**O+*#@@####*#++#@@O++$%@O++@O=%++*#**@#O+",
"&**&#**###@#O+*#*#&*@*#*O+#*#@##*#*#++@#@O+$=%@@++@@==%O@*&*@#O+",
"-***##**&#@#@+&**&#*#*##++#*#@*#&**#O+##@OO==@@@O+@#O=%OO*&&@@++",
"-&**#@**&*##@+&&*&##*#@#O+**##**&*#&@+#*@OO%=O@#O+##@%%OO**&*@O+",
"&&*&#@#**&#*@+*&*&#@##@*++&**##&*#&*@O#*#@O%==@#O+#*%%;OO*#&##O:",
"-&*&*@#***#*OO*&&*#@#@#*++&&*#*&##&*@O&*#@OO%=#@+O#*%;OO@*#*&#O:",
"&**&*#@#*&*#OO*&***#@@*#++*&***&#&&*@O&#@@OO%===+O%%;;OO&*#*&#+:",
"&*&&*#@@*&&#@O&&*#*#@#*@++*&**&&*&#*@O&#@@@OO%==%%%;;O@O&*##&*O:",
"-*&*&*#@#*&*@O&*##&*@@#@O+&*#*&&&*@#OO&#@#@OOOO%%;;OOO@@&&#@&&::",
"-&&#&*#@*#*&@O&*#*&*#@#@@+&*#**&**@@OO##@#@O@OO++++OOO#@#&*@#&+:",
"-&#@***#*#*&OO&&*#&**@@*@+&*@#*&**#@OO#@#*@@@OOO+O@OO@#@#&*@@#O+",
"-&&@*&*#&@#*OO*&*#*&*@#*@+&&@@*&&*#@OO*@#*#@@OOO@O@O@@*#@###@#++",
"-&&@#&**&#@#O+*&&#*&*#*&@O*&#@#*&**#@O*#*##@@O@O@O@@#@**@@###*O+",
"-*&##*&**&@#O+*&*&#*##*&OO*&#@#*&#*#@O***#@@O@@O@+#@###*#@#*#*O+",
"-*&#@#&*&*@@O+**&*@##*&&OO***##**#&*@O*&*#@#@@#@++*##*#&#@##*#O+",
"-*&&@@&*&*#@O+&*&*@#@*&&@O**&#***#&*OO&**#@#@@##++*#*#*&*#@*##O+",
"-**&#@*&*#*@@O&&*#@#@#*&@+&*&*#*#@*&OO&*#@##@#@#O+*#*#*&&#@*##+:",
"-*&*#@&&*@#*@O&**##@@#*&@+&&&*#**@#*OO&**#*@##@@O+&**#**&*#*##::",
"-&&**#&*#@**@O*&*#*@#@#*O+&&@*##*@@#OO*&*&*##*#@O+&*&*#**##*@#+:",
"-&*&*#&#@#*&OO*&*&*@##**++&*@*##**@#@O*&*&*##*#@O+&*&*#*##@#@#++",
"&*#&*##@@**&@+*&&**#@#*&O+&*@@#*#*@#@+*&&**#**#*OO*&**#*##@#@#:+",
"&&#&**#@#*&&@+**&*&#*#*&O+*&#@#*#*@#@+*&&*##**#*@O*&**#**@@##@+:",
"&&@*&*#@*#&*@+&**&##&#&*@+*&#@#*#*#@O+&*&*#**@#*@O*&*#@#*@#*#@::",
"&&@#&*&#*#*&O+&*#&#*&*&&@+#&#@*##*#@OO&&***#*#@#@O&&*#@@*@#&@@+:",
"&*@@&&**#*#&+O&&#*#*&&*&@O#*&#*#@##*+O&*#**###@#O+&*##@@#@*&@@++",
"&*#@*&***&#&++&&*##*&***@O##&*##@#**+O&*#**#@#@#O+&*##*@@*&*@@O+",
"&*##@*&*&##*O+*&##*&**#*@O*#*&##@#**+O&*##**@#@@O+&#*#*@#*&@#@O+",
"&*#@#*&#&#*#O+#*#@*&&*##OO*&#&*#@#*#++&#@#**#@#@OO*#**#@#*&@#@O+",
"-*&@*#*#*##*@+#*@#&&*#*#@O*&#*#@@#*#++**#@*#*##@@O*#*&*@@#&@#*O+",
"-&&#*#**###*@+##@##&*#*#@+&&#*#@#@*#O+**#@##*##@@O##*&*#@@*##*O+",
"-&*#&*#*#@#*O+#@###*#@**@+&&**#@*##*O+*##@@#*##@O+#*&&##@#*#*#++",
"-&#*&&@*#@#&++*@@#*##@#*@+&#**#@*#@*@+*@##@##*#@++**&*##@#**##++",
"&*#**&@#@@*&O+*#@#*#@#**@+&*#*@@#*@#@O#@##@##*##+O**&*#@@##*##O+",
"&*##**@#@#*&++**#@*#@@#*OO&*#*@###@#@O#@#@@@##@#+O#*#*@@#*#*##++",
"&*@#*##@@#&*++&*#@##@@#@@O**##@#@@##@O##@#@@#@@#O+*###@#***##@O+",
"&&@@##@@##**++&&*@@##@@@O+***##@@@@#OO##@@@@@@#@++*#@@@#**@*#@O+",
"   ...     .Xo..      ..XoX.      ..oX..      .XoX..     @@@@@O:",
" ..X....  .XoX.X..  ..XXoX....  ..oXXoX.X.  ....XoX...  .X@#@#+:",
" X.XXX....XoooXXXXXXXXooooXXooXXXXXooooXXXXXXXXXooXXXXXXXoO#@#+:",
" .XXooXX...XoooooooooooooooooooooooooooooooooooooooooooooOO@##::",
" .XoOOoXXXXo++#@OO@@OO@O++@@OOOO@@OO++O@OOOOO@OO++@OOOOOOO@@##::",
".XXoO@OooooO++@#@O@@@OO@++#@@OO@@O@O++O@@OOO@@O@++@@OO@OO@@@@#+:",
".XoX@#@@#@O@O+@#@@O@@O@@O+##@O@@#@#@++@#@O@@#@@@O+@#@@#@O@##@@O+",
"Xooo@##@##@@O+###@O#@O#@+O*#@O@@#@##++*##@@##@@#O+##@#*#@@*#@@O+",
"-&&*@###&*@#OO#*#@@*#@*#OO*#O@#@###*+O&*#@#*##@#@+#*##**@#*@#@O+",
"-&&**#&#&*#@OO**##@**@&#@O**O@##*#**++&##*#*##@#@+#*##**##*@#*O+",
"-*&&#*&#&##@@O&*&#@**#&*@+#*@#@#**#*@+&*#*#@*##*@+#&*#*#**#**#++",
"-**&#*&#*###@O&*&#**#*&*O+##@#@#*##*@O**#*@#*#**@O#&#**#&##**#O+",
"-&*&##&&**#*@O&&**#&#**&++#@##*@#@##@+&**#@***#*@O*&##*&*#@#*#O:",
"-&*&@#*&**#*OO&***#&***&+O*@##**#@*#O+&**&#*#*##OO*#*#&&*#@@#*+:",
"-&*#@*&*&**#OO&&*###&**&+O&@*#*&@#*#O+*&#&*&#**#O+&#*#&***#@#*+:",
"-&*@#*#*&*#@OO*&**#@&*&&+O&#*#*&@@*#O+*&**&&#**#@O&**#&&**##@#::",
"&**@&*#**#@@O+*&#*@#&&#&O+&*&*&&#@**OO&&*&&##*##@O&*&**&*#*#@#::",
"&*##&##**#@#++&*#*@##&#*@+&*&*&&#@#*@O*&&*&#**#*@O&&***&*#*##@+:",
"&*#*&#**#@#*+O&*@#@*#*#*@O&&**&**#@#@O#&&#&*#**#@+&&#*&**#*#*@O+",
"&&*#*&#*#@#*+O&#@@#**###O+*&*&*#*#@*@O#&*#&*##*#@+&**#&*##*#*#O+",
"-&##**##@@##O+&#@@#**#@#O+*&#&*#*##*O+*&##*###*#O+&**#**#@#***++",
"-*@##**#@@##++*#@##*##@#++*&##**#*##O+#*#####*##O+**####@@##*#O+",
"&*@##@#@@##@++#@@#@##@@@++@#@##@##@@++@##@@####@O+@##@@@#@#@#@+:",
"&&@@@@@@@@@@++@@@@@@@@@@++@@@@@@@@@@++@@@@@@@@@@++@@@@@@@@@@@@::"
};
